# Blender v2.79 (sub 0) OBJ File: 'corridor.blend'
# www.blender.org
mtllib corridorCap.mtl
o Plane_Plane.001
v -1.500000 -0.062000 0.040057
v 1.500000 -0.062000 0.038296
v -1.500000 2.938000 0.028957
v 1.500000 2.938000 0.034450
v -1.499316 1.439083 0.007398
v 0.015568 -0.083489 0.092264
v 1.500000 1.438000 0.085430
v 0.000000 2.938000 0.003839
v 0.005762 1.429151 0.318293
v -1.498896 0.689749 0.104305
v 0.765732 -0.083716 0.237020
v 1.500000 2.188000 0.065152
v -0.750000 2.938000 0.005761
v -1.500000 2.188000 0.074927
v -0.750000 -0.062000 0.238878
v 1.500000 0.688000 0.093621
v 0.750000 2.938000 0.123364
v 0.000290 2.187906 0.139521
v 0.002920 0.681531 0.093818
v -0.750000 1.438000 0.302543
v 0.693569 1.450997 0.116636
v 0.740189 0.697795 0.120167
v -0.749358 0.689016 0.086330
v -0.750000 2.188000 0.144038
v 0.751247 2.187595 0.085174
v -1.500000 0.313000 0.091009
v 1.125000 -0.062000 0.080144
v 1.500000 2.563000 0.102837
v -1.125000 2.938000 0.086114
v -1.500000 1.813000 -0.002576
v -0.375000 -0.062000 0.061722
v 1.500000 1.063000 0.009581
v 0.375000 2.938000 0.075059
v 0.000000 2.563000 0.089000
v 0.029004 0.998743 0.263110
v -1.121835 1.443011 0.102943
v 0.372225 1.435166 0.367098
v -1.497868 1.066376 0.120061
v 0.423830 -0.129402 0.100265
v 1.500000 1.813000 0.038307
v -0.375000 2.938000 0.039339
v -1.500000 2.563000 0.012620
v -1.125000 -0.062000 0.243294
v 1.500000 0.313000 0.071639
v 1.125000 2.938000 0.032118
v 0.005929 1.811075 0.203407
v 0.001170 0.311385 0.136470
v -0.374278 1.436401 0.298945
v 1.123047 1.439128 0.174716
v 0.691484 1.110404 0.174819
v 0.750882 0.311783 0.068826
v 0.375750 0.686145 0.184217
v 1.123524 0.689474 0.142029
v -0.746686 1.068247 0.021444
v -0.772309 0.239842 0.099691
v -1.120259 0.695506 0.114598
v -0.374880 0.687734 0.205526
v -0.750000 2.563000 0.082053
v -0.750000 1.813000 0.393233
v -1.125000 2.188000 0.132372
v -0.375000 2.188000 0.198033
v 0.750000 2.563000 -0.007704
v 0.759253 1.809584 0.265124
v 0.388429 2.183640 0.166085
v 1.125000 2.188000 0.025205
v 1.123552 1.813000 0.244238
v 0.427350 1.794877 0.280690
v 0.375000 2.563000 0.136926
v -0.375000 1.813000 0.312766
v -1.125000 1.813000 0.121764
v -1.125000 2.563000 0.090339
v -0.375000 0.313000 0.035862
v -1.125000 0.313000 0.012070
v -1.090701 1.117304 0.010499
v 1.125000 0.313000 0.021743
v 0.378138 0.308669 0.300454
v 0.372929 1.055193 0.080800
v 1.123373 1.064111 0.080331
v -0.366901 1.045057 0.310221
v -0.375000 2.563000 0.070745
v 1.125000 2.563000 0.045016
vn -0.0795 0.1074 0.9910
vn 0.0227 0.1535 0.9879
vn 0.0321 -0.0521 0.9981
vn 0.2022 -0.2167 0.9551
vn 0.2576 -0.2921 0.9210
vn 0.3694 0.0850 0.9254
vn -0.0023 -0.1860 0.9825
vn -0.2820 -0.4648 0.8393
vn -0.0926 -0.1031 0.9904
vn 0.0128 -0.1681 0.9857
vn 0.1167 0.1060 0.9875
vn -0.3385 0.2852 0.8967
vn 0.2116 0.2274 0.9505
vn 0.1269 -0.0911 0.9877
vn 0.1186 0.3624 0.9244
vn 0.2093 0.2424 0.9474
vn 0.0939 0.4668 0.8794
vn -0.0479 -0.2810 0.9585
vn 0.3647 -0.0281 0.9307
vn -0.1187 0.2189 0.9685
vn -0.1488 0.2693 0.9515
vn 0.3790 -0.1428 0.9143
vn -0.1540 0.1901 0.9696
vn -0.0961 0.1028 0.9901
vn 0.2879 0.1583 0.9445
vn 0.0317 0.4363 0.8992
vn 0.1099 -0.1368 0.9845
vn 0.1180 0.1312 0.9843
vn -0.2340 -0.1134 0.9656
vn -0.2804 -0.0129 0.9598
vn -0.5299 -0.1255 0.8387
vn -0.1770 -0.0159 0.9841
vn -0.1757 0.1356 0.9750
vn -0.0045 0.1374 0.9905
vn -0.0532 -0.1847 0.9814
vn 0.2689 0.2365 0.9337
vn -0.1693 -0.0266 0.9852
vn 0.0908 -0.1509 0.9844
vn -0.1591 0.2307 0.9599
vn -0.0522 0.4781 0.8768
vn 0.0158 0.0297 0.9994
vn 0.1172 0.1048 0.9876
vn 0.0396 0.2047 0.9780
vn 0.0304 -0.2190 0.9752
vn 0.2493 0.2776 0.9278
vn -0.0107 0.0334 0.9994
vn -0.3154 0.1970 0.9283
vn -0.2219 -0.2892 0.9312
vn 0.1334 -0.0283 0.9907
vn 0.2030 -0.3751 0.9045
vn 0.1349 -0.0992 0.9859
vn -0.0495 0.0589 0.9970
vn 0.0388 -0.0506 0.9980
vn 0.0897 0.0145 0.9959
vn 0.1541 0.1886 0.9699
vn -0.3439 -0.3180 0.8835
vn -0.4764 -0.0406 0.8783
vn 0.1614 -0.3784 0.9115
vn -0.0294 0.1421 0.9894
vn -0.0551 0.2443 0.9681
vn 0.0522 0.2304 0.9717
vn 0.0507 -0.1554 0.9865
vn 0.0096 0.0969 0.9952
vn -0.1289 -0.0758 0.9888
usemtl None
s off
f 81//1 28//1 4//1 45//1
f 80//2 34//2 8//2 41//2
f 79//3 35//3 9//3 48//3
f 78//4 32//4 7//4 49//4
f 77//5 50//5 21//5 37//5
f 76//6 51//6 22//6 52//6
f 75//7 44//7 16//7 53//7
f 74//8 54//8 20//8 36//8
f 73//9 55//9 23//9 56//9
f 72//10 47//10 19//10 57//10
f 71//11 58//11 13//11 29//11
f 70//12 59//12 24//12 60//12
f 69//13 46//13 18//13 61//13
f 68//14 62//14 17//14 33//14
f 67//15 63//15 25//15 64//15
f 66//16 40//16 12//16 65//16
f 63//17 66//17 65//17 25//17
f 21//18 49//18 66//18 63//18
f 49//19 7//19 40//19 66//19
f 46//20 67//20 64//20 18//20
f 9//21 37//21 67//21 46//21
f 37//22 21//22 63//22 67//22
f 34//23 68//23 33//23 8//23
f 18//24 64//24 68//24 34//24
f 64//25 25//25 62//25 68//25
f 59//26 69//26 61//26 24//26
f 20//27 48//27 69//27 59//27
f 48//28 9//28 46//28 69//28
f 30//29 70//29 60//29 14//29
f 5//30 36//30 70//30 30//30
f 36//31 20//31 59//31 70//31
f 42//32 71//32 29//32 3//32
f 14//33 60//33 71//33 42//33
f 60//34 24//34 58//34 71//34
f 55//35 72//35 57//35 23//35
f 15//36 31//36 72//36 55//36
f 31//37 6//37 47//37 72//37
f 26//38 73//38 56//38 10//38
f 1//39 43//39 73//39 26//39
f 43//40 15//40 55//40 73//40
f 38//41 74//41 36//41 5//41
f 10//42 56//42 74//42 38//42
f 56//43 23//43 54//43 74//43
f 51//44 75//44 53//44 22//44
f 11//45 27//45 75//45 51//45
f 27//46 2//46 44//46 75//46
f 47//47 76//47 52//47 19//47
f 6//48 39//48 76//48 47//48
f 39//49 11//49 51//49 76//49
f 35//50 77//50 37//50 9//50
f 19//51 52//51 77//51 35//51
f 52//52 22//52 50//52 77//52
f 50//53 78//53 49//53 21//53
f 22//54 53//54 78//54 50//54
f 53//55 16//55 32//55 78//55
f 54//56 79//56 48//56 20//56
f 23//57 57//57 79//57 54//57
f 57//58 19//58 35//58 79//58
f 58//59 80//59 41//59 13//59
f 24//60 61//60 80//60 58//60
f 61//61 18//61 34//61 80//61
f 62//62 81//62 45//62 17//62
f 25//63 65//63 81//63 62//63
f 65//64 12//64 28//64 81//64
